:SAMPLES-PER-SECOND 30
:FULLY-SPECIFIED
:DEGREES
188
root  5.571977736 37.8093329 -0.7922466346 -154.5029907 -81.01940155 153.9119873
lowerback  14.58279991 3.707079887 -3.994440079
upperback  4.504749775 4.091249943 0.1237720028
thorax  -3.679090023 1.927860022 1.662899971
lowerneck  -4.856329918 8.731349945 0.2482459992
upperneck  5.58370018 11.73630047 -1.397850037
head  2.714740038 5.792479992 -0.03101520054
lclavicle  0 -9.442270133e-015 7.951389973e-016
lhumerus  -9.73402977 -16.54120064 86.01249695
lradius  2.3469401e-031 -2.638316926e-031 131.6549988
lwrist  -1.059337512e-030 -1.765562519e-031 3.428740025
lhand  -1.496451383e-031 -27.76390076 20.11240005
lfingers  90 7.125020027 -90
lthumb  89.89689403 5.08795885 91.16245106
rclavicle  0 -9.442270133e-015 7.951389973e-016
rhumerus  6.108580112 32.89519882 -82.42639923
rradius  -1.877165602e-031 2.99083489e-031 122.1139984
rwrist  1.412450015e-030 -0 -6.896110058
rhand  -7.920061211e-032 -33.2840004 9.303460121
rfingers  -90 -7.125020027 -90
rthumb  -92.93752616 -24.25625642 -97.11982154
rfemur  -14.89770031 14.53180027 0.06813109666
rtibia  -0 0 52.72660065
rfoot  -0 -28.32460022 -9.992420197
rtoes  5.373923086 19.29304026 -105.8922705
lfemur  -27.06340027 4.689449787 -8.849809647
ltibia  -0 0 62.67020035
lfoot  9.077198109e-032 -13.4616003 3.927400112
ltoes  -4.250644065 -19.5611806 -102.515957
189
root  5.521333499 37.68910986 -0.8382733413 -156.4069824 -81.41889954 155.6339722
lowerback  14.43080044 3.460449934 -3.303709984
upperback  4.383820057 3.884819984 0.2020059973
thorax  -3.673759937 1.831509948 1.400320053
lowerneck  -4.829669952 8.795370102 0.5403760076
upperneck  5.750370026 11.81260014 -1.535349965
head  2.7964499 5.829699993 -0.1118990034
lclavicle  0 -9.442270133e-015 7.951389973e-016
lhumerus  -10.47469997 -16.26919937 86.43270111
lradius  2.346157271e-031 -2.639013091e-031 131.6380005
lwrist  -1.412450015e-030 -0 3.907089949
lhand  -1.496451383e-031 -27.76390076 20.11240005
lfingers  90 7.125020027 -90
lthumb  89.89689403 5.08795885 91.16245106
rclavicle  0 -9.442270133e-015 7.951389973e-016
rhumerus  5.544960022 32.96480179 -82.79329681
rradius  -1.859803774e-031 3.001661866e-031 121.7819977
rwrist  0 -1.765562519e-031 -6.903289795
rhand  -7.920061211e-032 -33.2840004 9.303460121
rfingers  -90 -7.125020027 -90
rthumb  -92.93752616 -24.25625642 -97.11982154
rfemur  -14.11839962 14.14239979 0.5780069828
rtibia  -0 0 52.34489822
rfoot  -0 -29.21030045 -9.824410439
rtoes  5.373923086 19.29304026 -105.8922705
lfemur  -25.95470047 4.60668993 -8.627579689
ltibia  -0 0 61.79790115
lfoot  4.590145307e-032 -15.92850018 4.073289871
ltoes  -4.250644065 -19.5611806 -102.515957
190
root  5.477288764 37.59222256 -0.8848577972 -161.9489746 -82.22380066 161.2719727
lowerback  14.10770035 3.115170002 -2.011320114
upperback  4.212140083 3.647629976 0.4347009957
thorax  -3.605020046 1.720469952 0.9727680087
lowerneck  -4.894800186 8.848010063 0.900537014
upperneck  5.9479599 11.86830044 -1.653839946
head  2.909650087 5.857999802 -0.1929170042
lclavicle  0 -9.442270133e-015 7.951389973e-016
lhumerus  -11.06900024 -16.02199936 86.72730255
lradius  2.350070052e-031 -2.635529319e-031 131.7230072
lwrist  -7.062250077e-031 -3.531125038e-031 4.804599762
lhand  -1.496451383e-031 -27.76390076 20.11240005
lfingers  90 7.125020027 -90
lthumb  89.89689403 5.08795885 91.16245106
rclavicle  0 -9.442270133e-015 7.951389973e-016
rhumerus  5.013470173 33.01380157 -83.09799957
rradius  -1.846793892e-031 3.009683764e-031 121.5339966
rwrist  0 -1.765562519e-031 -6.88380003
rhand  -7.920061211e-032 -33.2840004 9.303460121
rfingers  -90 -7.125020027 -90
rthumb  -92.93752616 -24.25625642 -97.11982154
rfemur  -13.6310997 13.44680023 1.781409979
rtibia  -0 0 52.0766983
rfoot  -0 -29.8173008 -8.940660477
rtoes  5.373923086 19.29304026 -105.8922705
lfemur  -25.50239944 4.597899914 -7.545460224
ltibia  -0 0 61.24349976
lfoot  4.633110453e-032 -17.69510078 2.741319895
ltoes  -4.250644065 -19.5611806 -102.515957
191
root  5.454222236 37.51844571 -0.9427689192 -166.6400146 -83.09760284 166.2600098
lowerback  13.64190006 2.724380016 -1.059509993
upperback  4.006289959 3.297849894 0.6448230147
thorax  -3.516599894 1.554329991 0.7333120108
lowerneck  -4.954349995 8.920229912 1.239449978
upperneck  6.096159935 11.94810009 -1.737699986
head  3.002320051 5.899950027 -0.260803014
lclavicle  0 -9.442270133e-015 7.951389973e-016
lhumerus  -11.57079983 -15.78310013 86.93309784
lradius  2.356089578e-031 -2.630149414e-031 131.8540039
lwrist  -7.062250077e-031 -1.765562519e-031 5.406720161
lhand  -1.496451383e-031 -27.76390076 20.11240005
lfingers  90 7.125020027 -90
lthumb  89.89689403 5.08795885 91.16245106
rclavicle  0 -9.442270133e-015 7.951389973e-016
rhumerus  4.621689796 33.05369949 -83.40059662
rradius  -1.838487467e-031 3.014764978e-031 121.3759995
rwrist  0 -1.765562519e-031 -6.88781023
rhand  -7.920061211e-032 -33.2840004 9.303460121
rfingers  -90 -7.125020027 -90
rthumb  -92.93752616 -24.25625642 -97.11982154
rfemur  -13.60149956 12.40690041 2.752010107
rtibia  -0 0 52.11169815
rfoot  -0 -30.04509926 -8.485269547
rtoes  5.373923086 19.29304026 -105.8922705
lfemur  -25.75600052 4.498310089 -6.537509918
ltibia  -0 0 61.03630066
lfoot  4.645783676e-032 -18.17860031 3.467129946
ltoes  -4.250644065 -19.5611806 -102.515957
